<svg xmlns="http://www.w3.org/2000/svg" style="display: none;">
<symbol id="behance-logo" viewBox="0 0 430.123 430.123">
<path id="Behance" d="M388.432,119.12H280.659V92.35h107.782v26.77H388.432z M208.912,228.895 c6.954,10.771,10.429,23.849,10.429,39.203c0,15.878-3.918,30.122-11.889,42.704c-5.071,8.326-11.367,15.359-18.932,21.021 c-8.52,6.548-18.607,11.038-30.203,13.437c-11.633,2.403-24.224,3.617-37.787,3.617H0V81.247h129.25 c32.579,0.53,55.676,9.969,69.315,28.506c8.184,11.369,12.239,25.011,12.239,40.868c0,16.362-4.104,29.454-12.368,39.401 c-4.597,5.577-11.388,10.65-20.378,15.229C191.675,210.236,202.007,218.086,208.912,228.895z M61.722,186.76h56.632 c11.638,0,21.046-2.212,28.292-6.634c7.241-4.415,10.854-12.263,10.854-23.531c0-12.449-4.784-20.712-14.375-24.689 c-8.244-2.763-18.792-4.186-31.591-4.186H61.722V186.76z M162.953,264.275c0-13.902-5.682-23.513-17.023-28.67 c-6.342-2.931-15.29-4.429-26.763-4.536H61.722v71.322h56.556c11.619,0,20.612-1.521,27.102-4.694 C157.084,291.863,162.953,280.76,162.953,264.275z M428.419,220.736c1.302,8.756,1.891,21.46,1.652,38.065H290.493 c0.77,19.266,7.421,32.739,20.035,40.449c7.607,4.835,16.83,7.196,27.63,7.196c11.388,0,20.67-2.879,27.815-8.797 c3.893-3.137,7.327-7.565,10.296-13.152h51.16c-1.34,11.379-7.5,22.92-18.57,34.648c-17.151,18.641-41.205,27.988-72.097,27.988 c-25.52,0-48.011-7.883-67.533-23.592C249.772,307.777,240,282.211,240,246.746c0-33.257,8.773-58.712,26.378-76.43 c17.67-17.751,40.474-26.586,68.583-26.586c16.661,0,31.68,2.978,45.079,8.965c13.357,5.993,24.396,15.425,33.09,28.388 C420.998,192.499,426.058,205.699,428.419,220.736z M378.062,225.73c-0.938-13.322-5.386-23.405-13.395-30.296 c-7.943-6.91-17.866-10.379-29.706-10.379c-12.886,0-22.836,3.708-29.906,10.996c-7.118,7.273-11.547,17.161-13.362,29.68H378.062 L378.062,225.73z"/>
</symbol>
<symbol id="facebook-logo" viewBox="0 0 96.124 96.123">
<path d="M72.089,0.02L59.624,0C45.62,0,36.57,9.285,36.57,23.656v10.907H24.037c-1.083,0-1.96,0.878-1.96,1.961v15.803 c0,1.083,0.878,1.96,1.96,1.96h12.533v39.876c0,1.083,0.877,1.96,1.96,1.96h16.352c1.083,0,1.96-0.878,1.96-1.96V54.287h14.654 c1.083,0,1.96-0.877,1.96-1.96l0.006-15.803c0-0.52-0.207-1.018-0.574-1.386c-0.367-0.368-0.867-0.575-1.387-0.575H56.842v-9.246 c0-4.444,1.059-6.7,6.848-6.7l8.397-0.003c1.082,0,1.959-0.878,1.959-1.96V1.98C74.046,0.899,73.17,0.022,72.089,0.02z"/></symbol>
<symbol id="linkedin" viewBox="0 0 310 310">
<path d="M72.16,99.73H9.927c-2.762,0-5,2.239-5,5v199.928c0,2.762,2.238,5,5,5H72.16c2.762,0,5-2.238,5-5V104.73 C77.16,101.969,74.922,99.73,72.16,99.73z"/><path id="XMLID_803_" d="M41.066,0.341C18.422,0.341,0,18.743,0,41.362C0,63.991,18.422,82.4,41.066,82.4 c22.626,0,41.033-18.41,41.033-41.038C82.1,18.743,63.692,0.341,41.066,0.341z"/>
<path d="M230.454,94.761c-24.995,0-43.472,10.745-54.679,22.954V104.73c0-2.761-2.238-5-5-5h-59.599 c-2.762,0-5,2.239-5,5v199.928c0,2.762,2.238,5,5,5h62.097c2.762,0,5-2.238,5-5v-98.918c0-33.333,9.054-46.319,32.29-46.319 c25.306,0,27.317,20.818,27.317,48.034v97.204c0,2.762,2.238,5,5,5H305c2.762,0,5-2.238,5-5V194.995 C310,145.43,300.549,94.761,230.454,94.761z"/></symbol>
<symbol id="pinterest-logotype" viewBox="0 0 543.906 543.906">
<path style="fill:#010002;" d="M271.959,0C121.77,0,0,121.753,0,271.953c0,111.354,66.966,207.022,162.786,249.082 c-0.767-18.993-0.136-41.788,4.732-62.446c5.227-22.083,34.995-148.187,34.995-148.187s-8.692-17.356-8.692-43.028 c0-40.298,23.361-70.398,52.449-70.398c24.737,0,36.686,18.58,36.686,40.826c0,24.867-15.86,62.06-24.013,96.511 c-6.815,28.854,14.462,52.378,42.925,52.378c51.53,0,86.231-66.177,86.231-144.587c0-59.601-40.146-104.212-113.16-104.212 c-82.494,0-133.888,61.521-133.888,130.233c0,23.693,6.984,40.407,17.927,53.341c5.031,5.945,5.733,8.333,3.911,15.153 c-1.305,5.004-4.302,17.051-5.542,21.832c-1.811,6.886-7.392,9.35-13.614,6.799c-37.997-15.512-55.696-57.116-55.696-103.892 c0-77.251,65.155-169.884,194.37-169.884c103.832,0,172.157,75.13,172.157,155.786c0,106.682-59.308,186.38-146.741,186.38 c-29.355,0-56.98-15.871-66.438-33.896c0,0-15.79,62.658-19.135,74.755c-5.765,20.968-17.051,41.93-27.375,58.258 c24.47,7.218,50.306,11.15,77.082,11.15c150.183,0,271.948-121.759,271.948-271.953C543.906,121.753,422.142,0,271.959,0"/>
</symbol>
</svg>