<svg xmlns="http://www.w3.org/2000/svg" viewBox="0 0 239 34.52">
<symbol id="bologna" width="240" height="35">
<path d="M25,24.63a7.8,7.8,0,0,1-3.67,7.11Q17.67,34,11.28,34H0l.1-.58A14,14,0,0,0,2,33.37a2.84,2.84,0,0,0,1.27-.53,2.62,2.62,0,0,0,.86-1A7.13,7.13,0,0,0,4.56,30a60.42,60.42,0,0,0,.24-6.82V11.28q0-7.2-.67-8.64a2.78,2.78,0,0,0-.89-1A2.85,2.85,0,0,0,2,1.1,14.14,14.14,0,0,0,.1,1L0,.43H10.75A22.15,22.15,0,0,1,18,1.68,6.87,6.87,0,0,1,21.31,4a6.31,6.31,0,0,1,1.3,4,6.07,6.07,0,0,1-2.3,5,13.5,13.5,0,0,1-5.52,2.54,15,15,0,0,1,6.72,2.3A7.89,7.89,0,0,1,25,24.63ZM18.43,8q0-6.48-10.27-6.48V15.27h.43Q18.43,15.27,18.43,8Zm2.4,16.61q0-8.4-12-8.4H8.16v7.68a45.77,45.77,0,0,0,.31,6.84A2.81,2.81,0,0,0,10,32.94a16.29,16.29,0,0,0,4.44-.58A11.6,11.6,0,0,0,17.74,31a7.12,7.12,0,0,0,2.16-2.45A7.69,7.69,0,0,0,20.83,24.63Z"/><path d="M45.65,0Q53.38,0,58,4.73A16.76,16.76,0,0,1,62.64,17,18.1,18.1,0,0,1,58.16,29.5q-4.49,5-12.17,5t-12.36-5a17.75,17.75,0,0,1-4.68-12.56q0-7.51,4.49-12.22T45.65,0ZM46,33.42q6.12,0,9.31-4.44t3.19-11.69q0-7.25-3.36-11.72A11.17,11.17,0,0,0,45.63,1.1q-6.12,0-9.31,4.42T33.12,17.21q0,7.27,3.36,11.74A11.17,11.17,0,0,0,46,33.42Z"/><path d="M89.72,34H66.77l.1-.58a14,14,0,0,0,1.85-.1,2.86,2.86,0,0,0,2.11-1.51A7.13,7.13,0,0,0,71.28,30a60.42,60.42,0,0,0,.24-6.82V11.28q0-7.15-.67-8.69a2.55,2.55,0,0,0-2.11-1.54A14.71,14.71,0,0,0,66.87,1l-.1-.53H79.68l-.1.53a5.47,5.47,0,0,0-3.5.91q-1.2,1-1.2,9.41V23.91a44.2,44.2,0,0,0,.34,6.89,2.93,2.93,0,0,0,1.58,2.28q12.39,0,12.38-5.91l.53-.1Z"/><path d="M109.3,0Q117,0,121.66,4.73A16.76,16.76,0,0,1,126.29,17a18.1,18.1,0,0,1-4.49,12.53q-4.49,5-12.17,5t-12.36-5A17.75,17.75,0,0,1,92.6,16.92q0-7.51,4.49-12.22T109.3,0Zm.31,33.42q6.12,0,9.31-4.44t3.19-11.69q0-7.25-3.36-11.72a11.17,11.17,0,0,0-9.48-4.47q-6.12,0-9.31,4.42T96.77,17.21q0,7.27,3.36,11.74A11.17,11.17,0,0,0,109.61,33.42Z"/><path d="M160.09,25.06v6a25.37,25.37,0,0,1-12.67,3.5,16.24,16.24,0,0,1-12.34-4.95,17.2,17.2,0,0,1-4.7-12.34,17.48,17.48,0,0,1,4.54-12.32Q139.45,0,147.13,0a25.47,25.47,0,0,1,6.77.94,18.93,18.93,0,0,1,5,2V9.07l-.53-.1a7.85,7.85,0,0,0-3.74-5.86,13.89,13.89,0,0,0-7.54-2q-6.15,0-9.36,4.42t-3.22,11.69q0,7.27,3.36,11.74t9.77,4.47q6.41,0,9-4V25.64q0-5.33-.6-6.55t-3.48-1.22l-.1-.48h11.76l-.1.48q-2.74,0-3.43,1.3T160.09,25.06Z"/><path d="M198.63,11.23v23h-1.49L174.54,5.71V23.09A38.77,38.77,0,0,0,175,30a4.23,4.23,0,0,0,1.44,2.78,6.17,6.17,0,0,0,3.31.67l.1.58H168l.1-.58a6.17,6.17,0,0,0,3.31-.67A4.31,4.31,0,0,0,172.88,30a36.7,36.7,0,0,0,.46-6.91V11.23a36.29,36.29,0,0,0-.46-6.89,4.24,4.24,0,0,0-1.44-2.74A6.35,6.35,0,0,0,168.1,1L168,.43h6.53L197.43,29V11.23A36.34,36.34,0,0,0,197,4.37a4.2,4.2,0,0,0-1.46-2.76A6.49,6.49,0,0,0,192.15,1l-.1-.53H204l-.1.53a6.49,6.49,0,0,0-3.36.65,4.13,4.13,0,0,0-1.44,2.76A38.29,38.29,0,0,0,198.63,11.23Z"/><path d="M229.67,33.18q.74-.29.74-1.49t-2.54-8.16H213.22q-2.07,6.1-2.06,7.66t.79,1.92a7.75,7.75,0,0,0,2.86.36l.1.58H204.1l.1-.58a7.81,7.81,0,0,0,2.18-.24A4.15,4.15,0,0,0,208.11,32a11.19,11.19,0,0,0,1.8-3q.86-2,2.06-5.52l4.27-12.34q2.25-6.53,2.26-7.92t-.67-1.8A5.57,5.57,0,0,0,215.24,1l-.1-.53h7.92l8.5,23q2.16,5.71,2.9,7.25a4.88,4.88,0,0,0,1.42,2,5.25,5.25,0,0,0,3,.82l.1.58H227l.1-.58A7.94,7.94,0,0,0,229.67,33.18ZM220.38,3l-6.77,19.35h13.87Z"/></g></g>
</symbol>
</svg>