<svg xmlns="http://www.w3.org/2000/svg" viewBox="0 0 310.023 310.023"><path d="M239.741 102.348c-39.51 0-58.267 20.938-67.045 38.503-5.865 11.738-8.088 23.385-8.93 30.63-1.781-7.023-4.973-14.658-10.674-20.684-2.858-3.021-6.118-5.416-9.761-7.179 8.122-5.45 16.12-15.527 16.12-34.078 0-17.188-5.884-31.373-17.015-41.021-10.191-8.832-24.242-13.501-40.636-13.501H5a5 5 0 0 0-5 5V246.06a5 5 0 0 0 5 5h96.747c.12.002.358.007.703.007h.001c4.274 0 19.349-.579 33.906-8.027 12.02-6.148 26.085-18.427 29.008-42.535 2.342 10.313 7.12 22.569 16.785 32.925 13.304 14.255 32.637 21.495 57.463 21.52.358.017 1.283.053 2.673.053 6.268 0 22.436-.753 37.141-7.729 18.947-8.989 28.963-25.176 28.963-46.812a5 5 0 0 0-5-5h-32.734c-1.372 0-2.686.53-3.63 1.526a4.927 4.927 0 0 0-1.366 3.673c.005.185.07 4.586-3.699 8.451-4.064 4.168-11.372 6.371-21.131 6.371-.099 0-.217.004-.316.01-.065.004-.358.018-.832.018-2.042 0-9.186-.288-15.422-3.996-6.255-3.72-9.911-9.903-10.904-18.418h91.14a5 5 0 0 0 4.958-4.352c.213-1.634 4.968-40.298-17.232-65.586-12.125-13.809-29.782-20.811-52.481-20.811zm-25.53 55.932c2.653-7.219 9.506-18.679 26.259-18.679 7.065 0 12.627 1.989 16.529 5.912 3.861 3.882 5.541 9.025 6.271 12.767h-49.059zm-161.548 10h49.165c1.495.011 14.604.683 14.604 20.546 0 12.991-5.367 18.907-17.402 19.177H52.663V168.28zm45.779-38.689H52.663v-31.52l49.038-.002c1.379.059 8.259 1.029 8.259 14.364 0 17.158-6.119 17.158-11.518 17.158z"/><path d="M199.706 95.87h76.763a5 5 0 0 0 5-5V67.967a5 5 0 0 0-5-5h-76.763a5 5 0 0 0-5 5V90.87a5 5 0 0 0 5 5z"/></svg>